<svg xmlns="http://www.w3.org/2000/svg" viewBox="0 0 400 260" width="400" height="260">
<defs><radialGradient id="d0" gradientUnits="userSpaceOnUse" cx="0" cy="0" r="1" gradientTransform="translate(200 130) rotate(0) scale(300 195)"><stop offset="0" stop-color="#9333EA" stop-opacity="0.1"/><stop offset="0.8" stop-color="#9333EA" stop-opacity="0.09"/><stop offset="1" stop-color="#9333EA" stop-opacity="0.06"/></radialGradient><radialGradient id="d1" gradientUnits="userSpaceOnUse" cx="0" cy="0" r="1" gradientTransform="translate(120 90) rotate(0) scale(100 90)"><stop offset="0" stop-color="#9333EA" stop-opacity="0.55"/><stop offset="0.1" stop-color="#9333EA" stop-opacity="0.55"/><stop offset="0.51" stop-color="#9333EA" stop-opacity="0.3"/><stop offset="1" stop-color="#9333EA" stop-opacity="0"/></radialGradient><radialGradient id="d2" gradientUnits="userSpaceOnUse" cx="0" cy="0" r="1" gradientTransform="translate(315 180) rotate(0) scale(100 90)"><stop offset="0" stop-color="#9333EA" stop-opacity="0.55"/><stop offset="0.1" stop-color="#9333EA" stop-opacity="0.55"/><stop offset="0.51" stop-color="#9333EA" stop-opacity="0.3"/><stop offset="1" stop-color="#9333EA" stop-opacity="0"/></radialGradient><g id="s"><rect x="-400" y="-260" width="1200" height="780" fill="url(#d0)"/><rect x="-400" y="-260" width="1200" height="780" fill="url(#d1)"/><rect x="-400" y="-260" width="1200" height="780" fill="url(#d2)"/></g><clipPath id="c0"><rect x="0" y="0" width="9.57" height="260"/></clipPath><clipPath id="c1"><rect x="8.97" y="0" width="6.91" height="260"/></clipPath><clipPath id="c2"><rect x="15.27" y="0" width="7.95" height="260"/></clipPath><clipPath id="c3"><rect x="22.63" y="0" width="9.45" height="260"/></clipPath><clipPath id="c4"><rect x="31.48" y="0" width="9.25" height="260"/></clipPath><clipPath id="c5"><rect x="40.13" y="0" width="9.01" height="260"/></clipPath><clipPath id="c6"><rect x="48.54" y="0" width="9.63" height="260"/></clipPath><clipPath id="c7"><rect x="57.56" y="0" width="9.03" height="260"/></clipPath><clipPath id="c8"><rect x="65.99" y="0" width="6.07" height="260"/></clipPath><clipPath id="c9"><rect x="71.46" y="0" width="7.83" height="260"/></clipPath><clipPath id="c10"><rect x="78.68" y="0" width="8.77" height="260"/></clipPath><clipPath id="c11"><rect x="86.86" y="0" width="8.54" height="260"/></clipPath><clipPath id="c12"><rect x="94.8" y="0" width="7.4" height="260"/></clipPath><clipPath id="c13"><rect x="101.6" y="0" width="8.17" height="260"/></clipPath><clipPath id="c14"><rect x="109.17" y="0" width="9.63" height="260"/></clipPath><clipPath id="c15"><rect x="118.2" y="0" width="7.41" height="260"/></clipPath><clipPath id="c16"><rect x="125.01" y="0" width="8.55" height="260"/></clipPath><clipPath id="c17"><rect x="132.95" y="0" width="8.23" height="260"/></clipPath><clipPath id="c18"><rect x="140.58" y="0" width="7.16" height="260"/></clipPath><clipPath id="c19"><rect x="147.14" y="0" width="6.29" height="260"/></clipPath><clipPath id="c20"><rect x="152.83" y="0" width="9.09" height="260"/></clipPath><clipPath id="c21"><rect x="161.32" y="0" width="5.69" height="260"/></clipPath><clipPath id="c22"><rect x="166.41" y="0" width="8.7" height="260"/></clipPath><clipPath id="c23"><rect x="174.51" y="0" width="7.55" height="260"/></clipPath><clipPath id="c24"><rect x="181.46" y="0" width="5.87" height="260"/></clipPath><clipPath id="c25"><rect x="186.73" y="0" width="7.59" height="260"/></clipPath><clipPath id="c26"><rect x="193.71" y="0" width="10.5" height="260"/></clipPath><clipPath id="c27"><rect x="203.61" y="0" width="10.05" height="260"/></clipPath><clipPath id="c28"><rect x="213.06" y="0" width="9.58" height="260"/></clipPath><clipPath id="c29"><rect x="222.04" y="0" width="9.13" height="260"/></clipPath><clipPath id="c30"><rect x="230.57" y="0" width="9.33" height="260"/></clipPath><clipPath id="c31"><rect x="239.3" y="0" width="9.52" height="260"/></clipPath><clipPath id="c32"><rect x="248.22" y="0" width="6.22" height="260"/></clipPath><clipPath id="c33"><rect x="253.84" y="0" width="6.88" height="260"/></clipPath><clipPath id="c34"><rect x="260.12" y="0" width="6.87" height="260"/></clipPath><clipPath id="c35"><rect x="266.39" y="0" width="8.66" height="260"/></clipPath><clipPath id="c36"><rect x="274.45" y="0" width="7.99" height="260"/></clipPath><clipPath id="c37"><rect x="281.85" y="0" width="7.13" height="260"/></clipPath><clipPath id="c38"><rect x="288.37" y="0" width="8.9" height="260"/></clipPath><clipPath id="c39"><rect x="296.67" y="0" width="7.48" height="260"/></clipPath><clipPath id="c40"><rect x="303.55" y="0" width="7.59" height="260"/></clipPath><clipPath id="c41"><rect x="310.54" y="0" width="10.28" height="260"/></clipPath><clipPath id="c42"><rect x="320.23" y="0" width="7.85" height="260"/></clipPath><clipPath id="c43"><rect x="327.47" y="0" width="9.47" height="260"/></clipPath><clipPath id="c44"><rect x="336.34" y="0" width="7.41" height="260"/></clipPath><clipPath id="c45"><rect x="343.15" y="0" width="5.91" height="260"/></clipPath><clipPath id="c46"><rect x="348.46" y="0" width="8.67" height="260"/></clipPath><clipPath id="c47"><rect x="356.53" y="0" width="9.67" height="260"/></clipPath><clipPath id="c48"><rect x="365.6" y="0" width="6.1" height="260"/></clipPath><clipPath id="c49"><rect x="371.1" y="0" width="8.73" height="260"/></clipPath><clipPath id="c50"><rect x="379.23" y="0" width="8.74" height="260"/></clipPath><clipPath id="c51"><rect x="387.37" y="0" width="8.83" height="260"/></clipPath><clipPath id="c52"><rect x="395.59" y="0" width="8.75" height="260"/></clipPath><linearGradient id="sh"><stop offset="0" stop-color="#8f8f8f"/><stop offset="0.2" stop-color="#ffffff"/><stop offset="0.62" stop-color="#dbdbdb"/><stop offset="1" stop-color="#9e9e9e"/></linearGradient><mask id="r" maskUnits="userSpaceOnUse" x="0" y="0" width="400" height="260"><g fill="url(#sh)"><rect x="0" y="0" width="9.57" height="260"/><rect x="8.97" y="0" width="6.91" height="260"/><rect x="15.27" y="0" width="7.95" height="260"/><rect x="22.63" y="0" width="9.45" height="260"/><rect x="31.48" y="0" width="9.25" height="260"/><rect x="40.13" y="0" width="9.01" height="260"/><rect x="48.54" y="0" width="9.63" height="260"/><rect x="57.56" y="0" width="9.03" height="260"/><rect x="65.99" y="0" width="6.07" height="260"/><rect x="71.46" y="0" width="7.83" height="260"/><rect x="78.68" y="0" width="8.77" height="260"/><rect x="86.86" y="0" width="8.54" height="260"/><rect x="94.8" y="0" width="7.4" height="260"/><rect x="101.6" y="0" width="8.17" height="260"/><rect x="109.17" y="0" width="9.63" height="260"/><rect x="118.2" y="0" width="7.41" height="260"/><rect x="125.01" y="0" width="8.55" height="260"/><rect x="132.95" y="0" width="8.23" height="260"/><rect x="140.58" y="0" width="7.16" height="260"/><rect x="147.14" y="0" width="6.29" height="260"/><rect x="152.83" y="0" width="9.09" height="260"/><rect x="161.32" y="0" width="5.69" height="260"/><rect x="166.41" y="0" width="8.7" height="260"/><rect x="174.51" y="0" width="7.55" height="260"/><rect x="181.46" y="0" width="5.87" height="260"/><rect x="186.73" y="0" width="7.59" height="260"/><rect x="193.71" y="0" width="10.5" height="260"/><rect x="203.61" y="0" width="10.05" height="260"/><rect x="213.06" y="0" width="9.58" height="260"/><rect x="222.04" y="0" width="9.13" height="260"/><rect x="230.57" y="0" width="9.33" height="260"/><rect x="239.3" y="0" width="9.52" height="260"/><rect x="248.22" y="0" width="6.22" height="260"/><rect x="253.84" y="0" width="6.88" height="260"/><rect x="260.12" y="0" width="6.87" height="260"/><rect x="266.39" y="0" width="8.66" height="260"/><rect x="274.45" y="0" width="7.99" height="260"/><rect x="281.85" y="0" width="7.13" height="260"/><rect x="288.37" y="0" width="8.9" height="260"/><rect x="296.67" y="0" width="7.48" height="260"/><rect x="303.55" y="0" width="7.59" height="260"/><rect x="310.54" y="0" width="10.28" height="260"/><rect x="320.23" y="0" width="7.85" height="260"/><rect x="327.47" y="0" width="9.47" height="260"/><rect x="336.34" y="0" width="7.41" height="260"/><rect x="343.15" y="0" width="5.91" height="260"/><rect x="348.46" y="0" width="8.67" height="260"/><rect x="356.53" y="0" width="9.67" height="260"/><rect x="365.6" y="0" width="6.1" height="260"/><rect x="371.1" y="0" width="8.73" height="260"/><rect x="379.23" y="0" width="8.74" height="260"/><rect x="387.37" y="0" width="8.83" height="260"/><rect x="395.59" y="0" width="8.75" height="260"/></g></mask><linearGradient id="fx"><stop offset="0" stop-color="#000"/><stop offset="0.1" stop-color="#fff"/><stop offset="0.9" stop-color="#fff"/><stop offset="1" stop-color="#000"/></linearGradient><linearGradient id="fy" x2="0" y2="1"><stop offset="0" stop-color="#000"/><stop offset="0.1" stop-color="#fff"/><stop offset="0.9" stop-color="#fff"/><stop offset="1" stop-color="#000"/></linearGradient><mask id="mx" maskUnits="userSpaceOnUse" x="0" y="0" width="400" height="260"><rect width="400" height="260" fill="url(#fx)"/></mask><mask id="my" maskUnits="userSpaceOnUse" x="0" y="0" width="400" height="260"><rect width="400" height="260" fill="url(#fy)"/></mask></defs>
<g mask="url(#my)"><g mask="url(#mx)"><g><g mask="url(#r)"><g clip-path="url(#c0)"><use href="#s" transform="translate(4.42 0) scale(0.81 1) translate(-4.48 0)"/></g><g clip-path="url(#c1)"><use href="#s" transform="translate(12.77 0) scale(0.6 1) translate(-12.12 0)"/></g><g clip-path="url(#c2)"><use href="#s" transform="translate(18.44 0) scale(0.79 1) translate(-18.95 0)"/></g><g clip-path="url(#c3)"><use href="#s" transform="translate(28.26 0) scale(0.67 1) translate(-27.05 0)"/></g><g clip-path="url(#c4)"><use href="#s" transform="translate(35.95 0) scale(0.7 1) translate(-35.8 0)"/></g><g clip-path="url(#c5)"><use href="#s" transform="translate(44.55 0) scale(0.65 1) translate(-44.33 0)"/></g><g clip-path="url(#c6)"><use href="#s" transform="translate(54.26 0) scale(0.67 1) translate(-53.05 0)"/></g><g clip-path="url(#c7)"><use href="#s" transform="translate(61.12 0) scale(0.81 1) translate(-61.78 0)"/></g><g clip-path="url(#c8)"><use href="#s" transform="translate(69.94 0) scale(0.8 1) translate(-68.72 0)"/></g><g clip-path="url(#c9)"><use href="#s" transform="translate(73.86 0) scale(0.62 1) translate(-75.07 0)"/></g><g clip-path="url(#c10)"><use href="#s" transform="translate(84.57 0) scale(0.67 1) translate(-82.77 0)"/></g><g clip-path="url(#c11)"><use href="#s" transform="translate(91.45 0) scale(0.65 1) translate(-90.83 0)"/></g><g clip-path="url(#c12)"><use href="#s" transform="translate(99.84 0) scale(0.83 1) translate(-98.2 0)"/></g><g clip-path="url(#c13)"><use href="#s" transform="translate(106.18 0) scale(0.76 1) translate(-105.39 0)"/></g><g clip-path="url(#c14)"><use href="#s" transform="translate(111.8 0) scale(0.84 1) translate(-113.69 0)"/></g><g clip-path="url(#c15)"><use href="#s" transform="translate(120.82 0) scale(0.75 1) translate(-121.61 0)"/></g><g clip-path="url(#c16)"><use href="#s" transform="translate(130.5 0) scale(0.62 1) translate(-128.98 0)"/></g><g clip-path="url(#c17)"><use href="#s" transform="translate(137.42 0) scale(0.63 1) translate(-136.77 0)"/></g><g clip-path="url(#c18)"><use href="#s" transform="translate(143.8 0) scale(0.65 1) translate(-143.86 0)"/></g><g clip-path="url(#c19)"><use href="#s" transform="translate(151.45 0) scale(0.65 1) translate(-149.99 0)"/></g><g clip-path="url(#c20)"><use href="#s" transform="translate(158.19 0) scale(0.6 1) translate(-157.08 0)"/></g><g clip-path="url(#c21)"><use href="#s" transform="translate(165.48 0) scale(0.68 1) translate(-163.87 0)"/></g><g clip-path="url(#c22)"><use href="#s" transform="translate(169.97 0) scale(0.68 1) translate(-170.46 0)"/></g><g clip-path="url(#c23)"><use href="#s" transform="translate(179.98 0) scale(0.63 1) translate(-177.98 0)"/></g><g clip-path="url(#c24)"><use href="#s" transform="translate(185.08 0) scale(0.71 1) translate(-184.09 0)"/></g><g clip-path="url(#c25)"><use href="#s" transform="translate(189.2 0) scale(0.85 1) translate(-190.22 0)"/></g><g clip-path="url(#c26)"><use href="#s" transform="translate(199.34 0) scale(0.82 1) translate(-198.66 0)"/></g><g clip-path="url(#c27)"><use href="#s" transform="translate(209.66 0) scale(0.71 1) translate(-208.33 0)"/></g><g clip-path="url(#c28)"><use href="#s" transform="translate(217.43 0) scale(0.73 1) translate(-217.55 0)"/></g><g clip-path="url(#c29)"><use href="#s" transform="translate(224.65 0) scale(0.7 1) translate(-226.3 0)"/></g><g clip-path="url(#c30)"><use href="#s" transform="translate(234.88 0) scale(0.67 1) translate(-234.93 0)"/></g><g clip-path="url(#c31)"><use href="#s" transform="translate(241.85 0) scale(0.64 1) translate(-243.76 0)"/></g><g clip-path="url(#c32)"><use href="#s" transform="translate(250.47 0) scale(0.75 1) translate(-251.03 0)"/></g><g clip-path="url(#c33)"><use href="#s" transform="translate(258.69 0) scale(0.71 1) translate(-256.98 0)"/></g><g clip-path="url(#c34)"><use href="#s" transform="translate(264.77 0) scale(0.7 1) translate(-263.26 0)"/></g><g clip-path="url(#c35)"><use href="#s" transform="translate(270.32 0) scale(0.67 1) translate(-270.42 0)"/></g><g clip-path="url(#c36)"><use href="#s" transform="translate(277.66 0) scale(0.64 1) translate(-278.15 0)"/></g><g clip-path="url(#c37)"><use href="#s" transform="translate(284.4 0) scale(0.8 1) translate(-285.11 0)"/></g><g clip-path="url(#c38)"><use href="#s" transform="translate(294.22 0) scale(0.84 1) translate(-292.52 0)"/></g><g clip-path="url(#c39)"><use href="#s" transform="translate(299.39 0) scale(0.75 1) translate(-300.11 0)"/></g><g clip-path="url(#c40)"><use href="#s" transform="translate(308.22 0) scale(0.72 1) translate(-307.05 0)"/></g><g clip-path="url(#c41)"><use href="#s" transform="translate(313.41 0) scale(0.67 1) translate(-315.38 0)"/></g><g clip-path="url(#c42)"><use href="#s" transform="translate(321.97 0) scale(0.61 1) translate(-323.85 0)"/></g><g clip-path="url(#c43)"><use href="#s" transform="translate(332.78 0) scale(0.63 1) translate(-331.91 0)"/></g><g clip-path="url(#c44)"><use href="#s" transform="translate(341.16 0) scale(0.83 1) translate(-339.75 0)"/></g><g clip-path="url(#c45)"><use href="#s" transform="translate(347.6 0) scale(0.65 1) translate(-345.81 0)"/></g><g clip-path="url(#c46)"><use href="#s" transform="translate(353.62 0) scale(0.71 1) translate(-352.5 0)"/></g><g clip-path="url(#c47)"><use href="#s" transform="translate(360.94 0) scale(0.72 1) translate(-361.06 0)"/></g><g clip-path="url(#c48)"><use href="#s" transform="translate(366.93 0) scale(0.69 1) translate(-368.35 0)"/></g><g clip-path="url(#c49)"><use href="#s" transform="translate(373.74 0) scale(0.75 1) translate(-375.16 0)"/></g><g clip-path="url(#c50)"><use href="#s" transform="translate(381.72 0) scale(0.62 1) translate(-383.3 0)"/></g><g clip-path="url(#c51)"><use href="#s" transform="translate(393.08 0) scale(0.72 1) translate(-391.48 0)"/></g><g clip-path="url(#c52)"><use href="#s" transform="translate(398.17 0) scale(0.78 1) translate(-399.67 0)"/></g></g></g></g></g>
</svg>
